<svg width="100" height="100" viewBox="0 0 100 100" fill="none" xmlns="http://www.w3.org/2000/svg">
<path d="M49.7349 70.06C47.1963 70.06 44.9749 69.5933 43.0709 68.66C41.2043 67.6893 39.7483 66.308 38.7029 64.516C37.6949 62.6867 37.1909 60.5587 37.1909 58.132V39.988C37.1909 37.524 37.6949 35.396 38.7029 33.604C39.7483 31.812 41.2043 30.4493 43.0709 29.516C44.9749 28.5453 47.1963 28.06 49.7349 28.06C52.2736 28.06 54.4763 28.5453 56.3429 29.516C58.2096 30.4867 59.6469 31.868 60.6549 33.66C61.7003 35.4147 62.2229 37.524 62.2229 39.988H56.1749C56.1749 37.86 55.6149 36.236 54.4949 35.116C53.3749 33.996 51.7883 33.436 49.7349 33.436C47.6816 33.436 46.0763 33.996 44.9189 35.116C43.7989 36.236 43.2389 37.8413 43.2389 39.932V58.132C43.2389 60.2227 43.7989 61.8467 44.9189 63.004C46.0763 64.124 47.6816 64.684 49.7349 64.684C51.7883 64.684 53.3749 64.124 54.4949 63.004C55.6149 61.8467 56.1749 60.2227 56.1749 58.132H62.2229C62.2229 60.5587 61.7003 62.668 60.6549 64.46C59.6469 66.252 58.2096 67.6333 56.3429 68.604C54.4763 69.5747 52.2736 70.06 49.7349 70.06Z" fill="white"/>
</svg>
