<svg width="100" height="100" viewBox="0 0 100 100" fill="none" xmlns="http://www.w3.org/2000/svg">
<path d="M38.3109 69.5L33.8869 28.62H39.3189L42.0629 57.964C42.1376 58.7107 42.1936 59.532 42.2309 60.428C42.3056 61.324 42.3616 62.2013 42.3989 63.06C42.4736 63.9187 42.5109 64.6653 42.5109 65.3C42.5856 64.6653 42.6603 63.9187 42.7349 63.06C42.8096 62.2013 42.8843 61.324 42.9589 60.428C43.0709 59.532 43.1829 58.7107 43.2949 57.964L46.8229 28.62H52.4229L55.7269 57.964C55.8016 58.7107 55.8763 59.532 55.9509 60.428C56.0629 61.324 56.1749 62.2013 56.2869 63.06C56.3989 63.9187 56.4736 64.6653 56.5109 65.3C56.5483 64.6653 56.5856 63.9187 56.6229 63.06C56.6976 62.2013 56.7723 61.324 56.8469 60.428C56.9216 59.532 56.9963 58.7107 57.0709 57.964L59.8709 28.62H65.1349L60.5429 69.5H53.5429L50.2389 39.764C50.1643 38.98 50.0896 38.1587 50.0149 37.3C49.9403 36.404 49.8656 35.5453 49.7909 34.724C49.7163 33.8653 49.6416 33.156 49.5669 32.596C49.5296 33.156 49.4736 33.8653 49.3989 34.724C49.3243 35.5453 49.2496 36.404 49.1749 37.3C49.1003 38.1587 49.0069 38.98 48.8949 39.764L45.3669 69.5H38.3109Z" fill="white"/>
</svg>
