<svg width="100" height="100" viewBox="0 0 100 100" fill="none" xmlns="http://www.w3.org/2000/svg">
<g fill="white">
<rect x="43" y="13" width="14" height="16" rx="2"/>
<rect x="43" y="13" width="14" height="16" rx="2" transform="rotate(45 50 50)"/>
<rect x="43" y="13" width="14" height="16" rx="2" transform="rotate(90 50 50)"/>
<rect x="43" y="13" width="14" height="16" rx="2" transform="rotate(135 50 50)"/>
<rect x="43" y="13" width="14" height="16" rx="2" transform="rotate(180 50 50)"/>
<rect x="43" y="13" width="14" height="16" rx="2" transform="rotate(225 50 50)"/>
<rect x="43" y="13" width="14" height="16" rx="2" transform="rotate(270 50 50)"/>
<rect x="43" y="13" width="14" height="16" rx="2" transform="rotate(315 50 50)"/>
</g>
<circle cx="50" cy="50" r="23" stroke="white" stroke-width="11" fill="none"/>
</svg>
