<svg width="100" height="100" viewBox="0 0 100 100" fill="none" xmlns="http://www.w3.org/2000/svg">
<g clip-path="url(#clip0_28_2)">
<path d="M4.33681 69.5V28.62H17.1608C19.7368 28.62 21.9768 29.124 23.8808 30.132C25.7848 31.1027 27.2595 32.484 28.3048 34.276C29.3875 36.068 29.9288 38.1773 29.9288 40.604C29.9288 43.3293 29.2195 45.7 27.8008 47.716C26.4195 49.6947 24.5341 51.0947 22.1448 51.916L30.4888 69.5H23.6008L16.1528 52.7H10.3848V69.5H4.33681ZM10.3848 47.38H17.1608C19.1768 47.38 20.7821 46.7827 21.9768 45.588C23.1715 44.356 23.7688 42.732 23.7688 40.716C23.7688 38.6253 23.1715 36.9827 21.9768 35.788C20.7821 34.5933 19.1768 33.996 17.1608 33.996H10.3848V47.38ZM50.2349 70.06C47.6963 70.06 45.4749 69.5933 43.5709 68.66C41.7043 67.6893 40.2483 66.308 39.2029 64.516C38.1949 62.6867 37.6909 60.5587 37.6909 58.132V39.988C37.6909 37.524 38.1949 35.396 39.2029 33.604C40.2483 31.812 41.7043 30.4493 43.5709 29.516C45.4749 28.5453 47.6963 28.06 50.2349 28.06C52.7736 28.06 54.9763 28.5453 56.8429 29.516C58.7096 30.4867 60.1469 31.868 61.1549 33.66C62.2003 35.4147 62.7229 37.524 62.7229 39.988H56.6749C56.6749 37.86 56.1149 36.236 54.9949 35.116C53.8749 33.996 52.2883 33.436 50.2349 33.436C48.1816 33.436 46.5763 33.996 45.4189 35.116C44.2989 36.236 43.7389 37.8413 43.7389 39.932V58.132C43.7389 60.2227 44.2989 61.8467 45.4189 63.004C46.5763 64.1613 48.1816 64.74 50.2349 64.74C52.2883 64.74 53.8749 64.1613 54.9949 63.004C56.1149 61.8467 56.6749 60.2227 56.6749 58.132V53.54H49.0589V48.22H62.7229V58.132C62.7229 60.5587 62.2003 62.668 61.1549 64.46C60.1469 66.252 58.7096 67.6333 56.8429 68.604C54.9763 69.5747 52.7736 70.06 50.2349 70.06ZM71.5491 69.5V28.62H83.5891C87.4717 28.62 90.5144 29.5533 92.7171 31.42C94.9197 33.2867 96.0211 35.8627 96.0211 39.148C96.0211 41.0147 95.6104 42.6387 94.7891 44.02C94.0051 45.364 92.9037 46.4093 91.4851 47.156C90.0664 47.9027 88.4051 48.276 86.5011 48.276V47.716C88.5544 47.6787 90.3651 48.0707 91.9331 48.892C93.5011 49.676 94.7331 50.852 95.6291 52.42C96.5251 53.988 96.9731 55.8547 96.9731 58.02C96.9731 60.3347 96.4504 62.3693 95.4051 64.124C94.3971 65.8413 92.9411 67.1667 91.0371 68.1C89.1704 69.0333 86.9491 69.5 84.3731 69.5H71.5491ZM77.4291 64.292H83.8691C86.0344 64.292 87.7517 63.7133 89.0211 62.556C90.2904 61.3987 90.9251 59.7933 90.9251 57.74C90.9251 55.6493 90.2904 53.9693 89.0211 52.7C87.7517 51.4307 86.0344 50.796 83.8691 50.796H77.4291V64.292ZM77.4291 45.756H83.5331C85.5491 45.756 87.1357 45.2147 88.2931 44.132C89.4504 43.0493 90.0291 41.5933 90.0291 39.764C90.0291 37.9347 89.4504 36.4973 88.2931 35.452C87.1357 34.3693 85.5677 33.828 83.5891 33.828H77.4291V45.756Z" fill="white"/>
</g>
<defs>
<clipPath id="clip0_28_2">
<rect width="100" height="100" fill="white"/>
</clipPath>
</defs>
</svg>
