<svg width="102" height="102" viewBox="0 0 102 102" fill="none" xmlns="http://www.w3.org/2000/svg">
<rect x="0.5" y="0.5" width="101" height="101" stroke="black"/>
<path d="M25.3156 45.5L32.6756 16.3H39.1156L46.5156 45.5H41.3956L39.7956 38.42H32.0356L30.4356 45.5H25.3156ZM32.9556 34.34H38.8756L37.1156 26.5C36.8223 25.1933 36.569 24.02 36.3556 22.98C36.1423 21.9133 35.9956 21.14 35.9156 20.66C35.8356 21.14 35.689 21.9133 35.4756 22.98C35.289 24.02 35.0356 25.18 34.7156 26.46L32.9556 34.34ZM65.26 45.9C63.3933 45.9 61.7533 45.5533 60.34 44.86C58.9533 44.14 57.8733 43.14 57.1 41.86C56.3533 40.5533 55.98 39.02 55.98 37.26V24.54C55.98 22.7533 56.3533 21.22 57.1 19.94C57.8733 18.66 58.9533 17.6733 60.34 16.98C61.7533 16.26 63.3933 15.9 65.26 15.9C67.1533 15.9 68.78 16.26 70.14 16.98C71.5267 17.6733 72.6067 18.66 73.38 19.94C74.1533 21.22 74.54 22.7533 74.54 24.54H69.5C69.5 23.1533 69.1267 22.1 68.38 21.38C67.66 20.66 66.62 20.3 65.26 20.3C63.9 20.3 62.8467 20.66 62.1 21.38C61.3533 22.1 60.98 23.14 60.98 24.5V37.26C60.98 38.62 61.3533 39.6733 62.1 40.42C62.8467 41.14 63.9 41.5 65.26 41.5C66.62 41.5 67.66 41.14 68.38 40.42C69.1267 39.6733 69.5 38.62 69.5 37.26H74.54C74.54 38.9933 74.1533 40.5133 73.38 41.82C72.6067 43.1267 71.5267 44.14 70.14 44.86C68.78 45.5533 67.1533 45.9 65.26 45.9ZM27.4356 83.5V54.3H44.9556V58.66H32.3556V66.26H43.5556V70.58H32.3556V79.14H44.9556V83.5H27.4356ZM65.18 83.9C63.18 83.9 61.4467 83.5667 59.98 82.9C58.5133 82.2333 57.38 81.2867 56.58 80.06C55.8067 78.8067 55.4067 77.34 55.38 75.66H60.38C60.38 76.86 60.8067 77.8067 61.66 78.5C62.54 79.1667 63.7267 79.5 65.22 79.5C66.66 79.5 67.78 79.1667 68.58 78.5C69.4067 77.8333 69.82 76.9133 69.82 75.74C69.82 74.7533 69.5267 73.9 68.94 73.18C68.38 72.4333 67.5667 71.9267 66.5 71.66L63.14 70.74C60.8467 70.1533 59.0733 69.1 57.82 67.58C56.5933 66.06 55.98 64.22 55.98 62.06C55.98 60.4067 56.3533 58.9667 57.1 57.74C57.8467 56.5133 58.9 55.5667 60.26 54.9C61.6467 54.2333 63.2733 53.9 65.14 53.9C67.9667 53.9 70.2067 54.6333 71.86 56.1C73.5133 57.54 74.3533 59.4867 74.38 61.94H69.38C69.38 60.7933 69.0067 59.9 68.26 59.26C67.5133 58.5933 66.46 58.26 65.1 58.26C63.7933 58.26 62.78 58.5667 62.06 59.18C61.34 59.7933 60.98 60.66 60.98 61.78C60.98 62.7933 61.2467 63.66 61.78 64.38C62.34 65.0733 63.14 65.5667 64.18 65.86L67.66 66.82C69.98 67.4067 71.7533 68.46 72.98 69.98C74.2067 71.4733 74.82 73.3267 74.82 75.54C74.82 77.1933 74.42 78.66 73.62 79.94C72.82 81.1933 71.7 82.1667 70.26 82.86C68.82 83.5533 67.1267 83.9 65.18 83.9Z" fill="white"/>
</svg>
