<svg width="100" height="100" viewBox="0 0 100 100" fill="none" xmlns="http://www.w3.org/2000/svg">
<path d="M24.3156 44.5L31.6756 15.3H38.1156L45.5156 44.5H40.3956L38.7956 37.42H31.0356L29.4356 44.5H24.3156ZM31.9556 33.34H37.8756L36.1156 25.5C35.8223 24.1933 35.569 23.02 35.3556 21.98C35.1423 20.9133 34.9956 20.14 34.9156 19.66C34.8356 20.14 34.689 20.9133 34.4756 21.98C34.289 23.02 34.0356 24.18 33.7156 25.46L31.9556 33.34ZM64.26 44.9C62.3933 44.9 60.7533 44.5533 59.34 43.86C57.9533 43.14 56.8733 42.14 56.1 40.86C55.3533 39.5533 54.98 38.02 54.98 36.26V23.54C54.98 21.7533 55.3533 20.22 56.1 18.94C56.8733 17.66 57.9533 16.6733 59.34 15.98C60.7533 15.26 62.3933 14.9 64.26 14.9C66.1533 14.9 67.78 15.26 69.14 15.98C70.5267 16.6733 71.6067 17.66 72.38 18.94C73.1533 20.22 73.54 21.7533 73.54 23.54H68.5C68.5 22.1533 68.1267 21.1 67.38 20.38C66.66 19.66 65.62 19.3 64.26 19.3C62.9 19.3 61.8467 19.66 61.1 20.38C60.3533 21.1 59.98 22.14 59.98 23.5V36.26C59.98 37.62 60.3533 38.6733 61.1 39.42C61.8467 40.14 62.9 40.5 64.26 40.5C65.62 40.5 66.66 40.14 67.38 39.42C68.1267 38.6733 68.5 37.62 68.5 36.26H73.54C73.54 37.9933 73.1533 39.5133 72.38 40.82C71.6067 42.1267 70.5267 43.14 69.14 43.86C67.78 44.5533 66.1533 44.9 64.26 44.9ZM26.4356 82.5V53.3H43.9556V57.66H31.3556V65.26H42.5556V69.58H31.3556V78.14H43.9556V82.5H26.4356ZM64.18 82.9C62.18 82.9 60.4467 82.5667 58.98 81.9C57.5133 81.2333 56.38 80.2867 55.58 79.06C54.8067 77.8067 54.4067 76.34 54.38 74.66H59.38C59.38 75.86 59.8067 76.8067 60.66 77.5C61.54 78.1667 62.7267 78.5 64.22 78.5C65.66 78.5 66.78 78.1667 67.58 77.5C68.4067 76.8333 68.82 75.9133 68.82 74.74C68.82 73.7533 68.5267 72.9 67.94 72.18C67.38 71.4333 66.5667 70.9267 65.5 70.66L62.14 69.74C59.8467 69.1533 58.0733 68.1 56.82 66.58C55.5933 65.06 54.98 63.22 54.98 61.06C54.98 59.4067 55.3533 57.9667 56.1 56.74C56.8467 55.5133 57.9 54.5667 59.26 53.9C60.6467 53.2333 62.2733 52.9 64.14 52.9C66.9667 52.9 69.2067 53.6333 70.86 55.1C72.5133 56.54 73.3533 58.4867 73.38 60.94H68.38C68.38 59.7933 68.0067 58.9 67.26 58.26C66.5133 57.5933 65.46 57.26 64.1 57.26C62.7933 57.26 61.78 57.5667 61.06 58.18C60.34 58.7933 59.98 59.66 59.98 60.78C59.98 61.7933 60.2467 62.66 60.78 63.38C61.34 64.0733 62.14 64.5667 63.18 64.86L66.66 65.82C68.98 66.4067 70.7533 67.46 71.98 68.98C73.2067 70.4733 73.82 72.3267 73.82 74.54C73.82 76.1933 73.42 77.66 72.62 78.94C71.82 80.1933 70.7 81.1667 69.26 81.86C67.82 82.5533 66.1267 82.9 64.18 82.9Z" fill="white"/>
</svg>
