<svg width="100" height="100" viewBox="0 0 100 100" fill="none" xmlns="http://www.w3.org/2000/svg">
<path d="M25.9556 44.5V15.3H35.1956C37.1423 15.3 38.8223 15.66 40.2356 16.38C41.6756 17.1 42.7956 18.1133 43.5956 19.42C44.3956 20.7 44.7956 22.22 44.7956 23.98C44.7956 25.9 44.3023 27.5933 43.3156 29.06C42.3556 30.5267 41.049 31.5667 39.3956 32.18L45.1956 44.5H39.5956L34.5156 32.9H30.9556V44.5H25.9556ZM30.9556 28.5H35.1956C36.609 28.5 37.7156 28.1133 38.5156 27.34C39.3156 26.5667 39.7156 25.5 39.7156 24.14C39.7156 22.7533 39.3156 21.6733 38.5156 20.9C37.7156 20.1 36.609 19.7 35.1956 19.7H30.9556V28.5ZM64.26 44.9C62.3933 44.9 60.7533 44.5533 59.34 43.86C57.9533 43.14 56.8733 42.14 56.1 40.86C55.3533 39.5533 54.98 38.02 54.98 36.26V23.54C54.98 21.7533 55.3533 20.22 56.1 18.94C56.8733 17.66 57.9533 16.6733 59.34 15.98C60.7533 15.26 62.3933 14.9 64.26 14.9C66.1533 14.9 67.78 15.26 69.14 15.98C70.5267 16.6733 71.6067 17.66 72.38 18.94C73.1533 20.22 73.54 21.7533 73.54 23.54H68.5C68.5 22.1533 68.1267 21.1 67.38 20.38C66.66 19.66 65.62 19.3 64.26 19.3C62.9 19.3 61.8467 19.66 61.1 20.38C60.3533 21.1 59.98 22.14 59.98 23.5V36.26C59.98 37.62 60.3533 38.6733 61.1 39.42C61.8467 40.1667 62.9 40.54 64.26 40.54C65.62 40.54 66.66 40.1667 67.38 39.42C68.1267 38.6733 68.5 37.62 68.5 36.26V33.3H63.54V28.98H73.54V36.26C73.54 38.02 73.1533 39.5533 72.38 40.86C71.6067 42.14 70.5267 43.14 69.14 43.86C67.78 44.5533 66.1533 44.9 64.26 44.9ZM25.9956 82.5V53.3H34.9556C37.7823 53.3 40.0223 53.98 41.6756 55.34C43.329 56.6733 44.1556 58.5 44.1556 60.82C44.1556 62.1267 43.8623 63.26 43.2756 64.22C42.689 65.18 41.889 65.9267 40.8756 66.46C39.889 66.9933 38.7423 67.26 37.4356 67.26V67.1C38.849 67.0733 40.1023 67.34 41.1956 67.9C42.3156 68.4333 43.1956 69.2333 43.8356 70.3C44.5023 71.3667 44.8356 72.66 44.8356 74.18C44.8356 75.86 44.449 77.3267 43.6756 78.58C42.9023 79.8333 41.809 80.8067 40.3956 81.5C39.009 82.1667 37.3423 82.5 35.3956 82.5H25.9956ZM30.8756 78.34H35.0756C36.5423 78.34 37.689 77.9533 38.5156 77.18C39.369 76.38 39.7956 75.3 39.7956 73.94C39.7956 72.58 39.369 71.4867 38.5156 70.66C37.689 69.8067 36.5423 69.38 35.0756 69.38H30.8756V78.34ZM30.8756 65.34H34.8756C36.209 65.34 37.249 64.9933 37.9956 64.3C38.769 63.58 39.1556 62.6067 39.1556 61.38C39.1556 60.1533 38.769 59.1933 37.9956 58.5C37.249 57.8067 36.209 57.46 34.8756 57.46H30.8756V65.34ZM53.5 82.5L60.86 53.3H67.3L74.7 82.5H69.58L67.98 75.42H60.22L58.62 82.5H53.5ZM61.14 71.34H67.06L65.3 63.5C65.0067 62.1933 64.7533 61.02 64.54 59.98C64.3267 58.9133 64.18 58.14 64.1 57.66C64.02 58.14 63.8733 58.9133 63.66 59.98C63.4733 61.02 63.22 62.18 62.9 63.46L61.14 71.34Z" fill="white"/>
</svg>
