<svg width="100" height="100" viewBox="0 0 100 100" fill="none" xmlns="http://www.w3.org/2000/svg">
<path d="M47.8428 19.4999C32.2629 19.5002 19.5002 32.2629 19.5 47.8427C19.5 63.4227 32.2628 76.1862 47.8428 76.1865C54.6875 76.1865 60.9828 73.71 65.8945 69.6288L75.96 79.6962L75.9609 79.6953C76.2029 79.9451 76.4912 80.1452 76.8105 80.2831C77.133 80.4223 77.4805 80.4965 77.832 80.4999C78.1834 80.5034 78.5322 80.4365 78.8574 80.3036C79.1827 80.1707 79.4784 79.9737 79.7266 79.7255C79.9747 79.4773 80.1709 79.1823 80.3037 78.8574C80.4365 78.5322 80.5034 78.1832 80.5 77.832C80.4965 77.4806 80.4224 77.133 80.2832 76.8105C80.1452 76.491 79.9461 76.2018 79.6963 75.9599L69.6211 65.8837C73.703 60.9727 76.1865 54.6887 76.1865 47.8427C76.1863 32.2627 63.4228 19.4999 47.8428 19.4999ZM47.8428 24.7831C60.534 24.7831 70.9021 35.1515 70.9023 47.8427C70.9023 60.5341 60.5341 70.9023 47.8428 70.9023C35.1516 70.9021 24.7832 60.5339 24.7832 47.8427C24.7834 35.1516 35.1517 24.7834 47.8428 24.7831ZM34.9922 45.2011C34.6448 45.1972 34.3 45.262 33.9775 45.3915C33.6527 45.5221 33.3567 45.7161 33.1074 45.9619C32.8581 46.2076 32.6595 46.5002 32.5244 46.8232C32.3893 47.146 32.3204 47.4928 32.3203 47.8427C32.3203 48.1928 32.3893 48.5402 32.5244 48.8632C32.6595 49.1861 32.8582 49.4788 33.1074 49.7245C33.3567 49.9703 33.6527 50.1643 33.9775 50.2949C34.3 50.4243 34.6448 50.4883 34.9922 50.4843V50.4853H60.6943V50.4843C61.0417 50.4882 61.3866 50.4244 61.709 50.2949C62.0338 50.1643 62.3298 49.9703 62.5791 49.7245C62.8283 49.4789 63.026 49.186 63.1611 48.8632C63.2963 48.5402 63.3662 48.1928 63.3662 47.8427C63.3662 47.4928 63.2962 47.146 63.1611 46.8232C63.026 46.5004 62.8283 46.2075 62.5791 45.9619C62.3298 45.7161 62.0338 45.5221 61.709 45.3915C61.3865 45.262 61.0417 45.1972 60.6943 45.2011H34.9922Z" fill="white" stroke="white"/>
</svg>
