<svg width="100" height="100" viewBox="0 0 100 100" fill="none" xmlns="http://www.w3.org/2000/svg">
<path fill-rule="evenodd" clip-rule="evenodd" d="M78.8014 18L21.2008 18.0019C18.7093 18.0037 18.027 18.7107 18.023 21.2001L18.0126 27.6213C18.0085 30.1683 18.6724 30.8277 21.1631 30.8266L78.8008 30.8016C81.483 30.8004 82.0045 30.0209 82 27.6137L81.9878 21.2129C81.9827 18.5024 81.2611 17.9999 78.8014 18ZM78.7888 43.6027L21.1881 43.5989C18.6966 43.6007 18.0144 44.3133 18.0104 46.8027L18 53.224C17.9959 55.771 18.6598 56.3964 21.1505 56.3953L78.788 56.3986C81.4703 56.3975 81.9918 55.6236 81.9872 53.2163L81.9751 46.8156C81.9699 44.1051 81.2485 43.6028 78.7888 43.6027ZM78.7888 69.2041L21.1881 69.2003C18.6966 69.2021 18.0144 69.9149 18.0104 72.4043L18 78.8255C17.9959 81.3725 18.6598 81.998 21.1505 81.9969L78.788 82C81.4703 81.9988 81.9919 81.2251 81.9873 78.8179L81.9752 72.417C81.97 69.7065 81.2485 69.2023 78.7888 69.2041Z" fill="white"/>
</svg>
