<svg width="100" height="100" viewBox="0 0 100 100" fill="none" xmlns="http://www.w3.org/2000/svg">
<path d="M47.8428 19.4999C63.4228 19.4999 76.1863 32.2627 76.1865 47.8427C76.1865 54.6889 73.7023 60.9726 69.6201 65.8837L79.6963 75.9599H79.6953C79.9453 76.2019 80.1451 76.4908 80.2832 76.8105C80.4224 77.133 80.4965 77.4806 80.5 77.832C80.5034 78.1832 80.4365 78.5322 80.3037 78.8574C80.1709 79.1823 79.9747 79.4773 79.7266 79.7255C79.4783 79.9737 79.1826 80.1708 78.8574 80.3036C78.5322 80.4365 78.1834 80.5034 77.832 80.4999C77.4806 80.4965 77.133 80.4223 76.8105 80.2831C76.491 80.1451 76.202 79.9453 75.96 79.6953L65.8936 69.6288C60.9819 73.7097 54.6872 76.1865 47.8428 76.1865C32.2628 76.1862 19.5 63.4227 19.5 47.8427C19.5002 32.2629 32.2629 19.5002 47.8428 19.4999ZM47.8428 24.7831C35.1517 24.7834 24.7834 35.1516 24.7832 47.8427C24.7832 60.5339 35.1516 70.9021 47.8428 70.9023C60.5341 70.9023 70.9023 60.5341 70.9023 47.8427C70.9021 35.1515 60.534 24.7831 47.8428 24.7831ZM47.8857 32.3173C48.5859 32.3286 49.2529 32.6173 49.7402 33.1201C50.2258 33.6212 50.4941 34.2946 50.4854 34.9921V45.2011H60.6943C61.0417 45.1972 61.3865 45.262 61.709 45.3915C62.0338 45.5221 62.3298 45.7161 62.5791 45.9619C62.8283 46.2075 63.026 46.5004 63.1611 46.8232C63.2962 47.146 63.3662 47.4928 63.3662 47.8427C63.3662 48.1928 63.2963 48.5402 63.1611 48.8632C63.026 49.186 62.8283 49.4789 62.5791 49.7245C62.3298 49.9703 62.0338 50.1643 61.709 50.2949C61.3866 50.4244 61.0417 50.4882 60.6943 50.4843V50.4853H50.4854V60.6865L50.4756 60.9482C50.4534 61.2088 50.3928 61.4653 50.2949 61.7089C50.1644 62.0338 49.9704 62.3298 49.7246 62.579C49.4789 62.8282 49.1861 63.026 48.8633 63.1611C48.5404 63.2962 48.1929 63.3661 47.8428 63.3661C47.4927 63.3661 47.146 63.2961 46.8232 63.1611C46.5004 63.026 46.2076 62.8282 45.9619 62.579C45.7162 62.3298 45.5222 62.0338 45.3916 61.7089C45.2611 61.3842 45.1962 61.0364 45.2012 60.6865V50.4853H34.9922V50.4843C34.6448 50.4883 34.3 50.4243 33.9775 50.2949C33.6527 50.1643 33.3567 49.9703 33.1074 49.7245C32.8582 49.4788 32.6595 49.1861 32.5244 48.8632C32.3893 48.5402 32.3203 48.1928 32.3203 47.8427C32.3204 47.4928 32.3893 47.146 32.5244 46.8232C32.6595 46.5002 32.8581 46.2076 33.1074 45.9619C33.3567 45.7161 33.6527 45.5221 33.9775 45.3915C34.3 45.262 34.6448 45.1972 34.9922 45.2011H45.2012V34.9921C45.1968 34.641 45.2627 34.2923 45.3945 33.9667C45.5274 33.6389 45.7245 33.3409 45.9746 33.0908C46.2247 32.8406 46.5234 32.6426 46.8516 32.5097C47.1796 32.3769 47.5315 32.3119 47.8848 32.3173H47.8857Z" fill="white" stroke="white"/>
</svg>
