<svg width="100" height="100" viewBox="0 0 100 100" fill="none" xmlns="http://www.w3.org/2000/svg">
<path d="M8.54081 69.5V28.564H33.2368V34.164H14.4208V46.372H31.7808V51.972H14.5328V69.5H8.54081ZM37.2469 69.5V64.012H48.0549V44.188H38.6469V38.7H53.9349V64.012H63.8469V69.5H37.2469ZM50.4069 33.38C49.1003 33.38 48.0549 33.044 47.2709 32.372C46.4869 31.6627 46.0949 30.7293 46.0949 29.572C46.0949 28.3773 46.4869 27.444 47.2709 26.772C48.0549 26.0627 49.1003 25.708 50.4069 25.708C51.7136 25.708 52.7589 26.0627 53.5429 26.772C54.3269 27.444 54.7189 28.3773 54.7189 29.572C54.7189 30.7293 54.3269 31.6627 53.5429 32.372C52.7589 33.044 51.7136 33.38 50.4069 33.38ZM81.9691 69.5C79.1691 69.5 76.9851 68.7347 75.4171 67.204C73.8491 65.6733 73.0651 63.5453 73.0651 60.82V44.188H64.5531V38.7H73.0651V30.02H79.1131V38.7H91.1531V44.188H79.1131V60.82C79.1131 62.948 80.1397 64.012 82.1931 64.012H90.5931V69.5H81.9691Z" fill="white"/>
</svg>
