<svg width="100" height="100" viewBox="0 0 100 100" fill="none" xmlns="http://www.w3.org/2000/svg">
<path d="M37.4709 69.5V28.62H49.5109C53.3936 28.62 56.4363 29.5533 58.6389 31.42C60.8416 33.2867 61.9429 35.8627 61.9429 39.148C61.9429 41.0147 61.5323 42.6387 60.7109 44.02C59.9269 45.364 58.8256 46.4093 57.4069 47.156C55.9883 47.9027 54.3269 48.276 52.4229 48.276V47.716C54.4763 47.6787 56.2869 48.0707 57.8549 48.892C59.4229 49.676 60.6549 50.852 61.5509 52.42C62.4469 53.988 62.8949 55.8547 62.8949 58.02C62.8949 60.3347 62.3723 62.3693 61.3269 64.124C60.3189 65.8413 58.8629 67.1667 56.9589 68.1C55.0923 69.0333 52.8709 69.5 50.2949 69.5H37.4709ZM43.3509 64.292H49.7909C51.9563 64.292 53.6736 63.7133 54.9429 62.556C56.2123 61.3987 56.8469 59.7933 56.8469 57.74C56.8469 55.6493 56.2123 53.9693 54.9429 52.7C53.6736 51.4307 51.9563 50.796 49.7909 50.796H43.3509V64.292ZM43.3509 45.756H49.4549C51.4709 45.756 53.0576 45.2147 54.2149 44.132C55.3723 43.0493 55.9509 41.5933 55.9509 39.764C55.9509 37.9347 55.3723 36.4973 54.2149 35.452C53.0576 34.3693 51.4896 33.828 49.5109 33.828H43.3509V45.756Z" fill="white"/>
</svg>
