<svg width="100" height="100" viewBox="0 0 100 100" fill="none" xmlns="http://www.w3.org/2000/svg">
<path d="M63.3298 80.5C62.8163 80.5 62.3074 80.3966 61.8347 80.1963C61.3649 79.9971 60.9395 79.7059 60.5837 79.3398L33.9548 52.7109C33.2371 51.9929 32.8337 51.0191 32.8337 50.0039C32.8338 48.9887 33.2371 48.0149 33.9548 47.2969L60.5837 20.6689C60.9353 20.3051 61.3556 20.0149 61.8201 19.8145C62.2873 19.6128 62.7903 19.505 63.2996 19.5C63.8086 19.495 64.3137 19.5917 64.7849 19.7842C65.2564 19.9768 65.6848 20.2622 66.0447 20.6221C66.4044 20.9819 66.6891 21.4097 66.8816 21.8809C67.0742 22.3524 67.1708 22.8582 67.1658 23.3672C67.1607 23.8763 67.054 24.3793 66.8523 24.8467C66.6519 25.311 66.3613 25.7307 65.9978 26.082L42.0759 50.0039L65.9978 73.9258L65.9978 73.9268C66.5422 74.4561 66.9176 75.1349 67.075 75.8779C67.2329 76.6239 67.1647 77.4005 66.8787 78.1074C66.5927 78.8143 66.1016 79.4194 65.4695 79.8457C64.8373 80.272 64.0923 80.4998 63.3298 80.5Z" fill="white" stroke="white"/>
</svg>
