<svg width="100" height="100" viewBox="0 0 100 100" fill="none" xmlns="http://www.w3.org/2000/svg">
<path d="M38.2246 58.877C38.7931 58.8614 39.3531 59.0181 39.8311 59.3262C40.309 59.6343 40.6829 60.0794 40.9033 60.6036C41.1237 61.1277 41.1806 61.7066 41.0664 62.2637C40.9522 62.8208 40.6724 63.3304 40.2637 63.7256L40.2627 63.7247L23.332 80.6075H38.1396C38.5123 80.6027 38.8827 80.6716 39.2285 80.8106C39.5753 80.95 39.8911 81.1576 40.1572 81.42C40.4233 81.6824 40.6341 81.9952 40.7783 82.3399C40.9226 82.6848 40.9971 83.0549 40.9971 83.4288C40.9971 83.8026 40.9226 84.1728 40.7783 84.5176C40.6341 84.8623 40.4233 85.1752 40.1572 85.4376C39.8911 85.7 39.5754 85.9075 39.2285 86.0469C38.8827 86.1859 38.5123 86.2539 38.1396 86.2491V86.2501H16.5713C15.8231 86.25 15.1062 85.9519 14.5771 85.4229C14.0482 84.8939 13.7501 84.1769 13.75 83.4288V61.8604C13.7452 61.4877 13.8142 61.1174 13.9531 60.7715C14.0925 60.4248 14.3001 60.109 14.5625 59.8428C14.8249 59.5767 15.1376 59.365 15.4824 59.2208C15.8273 59.0765 16.1975 59.003 16.5713 59.003C16.9451 59.003 17.3153 59.0765 17.6602 59.2208C18.0049 59.365 18.3176 59.5767 18.5801 59.8428C18.8425 60.109 19.0501 60.4248 19.1895 60.7715C19.3284 61.1174 19.3974 61.4877 19.3926 61.8604V76.5694L36.2871 59.7237C36.7988 59.2011 37.4934 58.8974 38.2246 58.877ZM83.4287 13.7501C84.1767 13.7502 84.8939 14.0475 85.4229 14.5762C85.9519 15.1052 86.2499 15.8232 86.25 16.5714V38.1358L86.2393 38.4161C86.2155 38.6941 86.1512 38.9677 86.0469 39.2276C85.9075 39.5745 85.7 39.8911 85.4375 40.1573C85.1751 40.4233 84.8623 40.6341 84.5176 40.7784C84.1727 40.9227 83.8025 40.9971 83.4287 40.9971C83.0549 40.9971 82.6847 40.9227 82.3398 40.7784C81.9951 40.6342 81.6823 40.4233 81.4199 40.1573C81.1574 39.8911 80.9499 39.5745 80.8105 39.2276C80.6713 38.8808 80.6021 38.5095 80.6074 38.1358V23.3321L63.7158 40.2715C63.4566 40.5428 63.1468 40.7605 62.8027 40.9102C62.4587 41.0599 62.0881 41.1398 61.7129 41.1446C61.3377 41.1494 60.965 41.0794 60.6172 40.9385C60.2694 40.7976 59.9535 40.5879 59.6875 40.3233C59.4217 40.0589 59.2111 39.7442 59.0684 39.3975C58.9256 39.0506 58.8528 38.6781 58.8555 38.3028C58.8582 37.9277 58.9362 37.5569 59.084 37.212C59.2318 36.867 59.447 36.5547 59.7168 36.294L76.5693 19.3926H61.8604V19.3917C61.4877 19.3965 61.1173 19.3285 60.7715 19.1895C60.4246 19.0501 60.1089 18.8426 59.8428 18.5801C59.5767 18.3177 59.3649 18.005 59.2207 17.6602C59.0765 17.3154 59.0029 16.9452 59.0029 16.5714C59.0029 16.1975 59.0765 15.8273 59.2207 15.4825C59.365 15.1377 59.5767 14.825 59.8428 14.5626C60.1089 14.3001 60.4246 14.0926 60.7715 13.9532C61.1173 13.8142 61.4877 13.7462 61.8604 13.751V13.7501H83.4287Z" fill="white" stroke="white" stroke-width="0.5"/>
<path d="M41.123 38.2247C41.1387 38.7931 40.982 39.3531 40.6738 39.8311C40.3657 40.309 39.9206 40.683 39.3965 40.9034C38.8723 41.1238 38.2934 41.1806 37.7363 41.0665C37.1793 40.9523 36.6696 40.6724 36.2744 40.2637L36.2754 40.2628L19.3926 23.3321L19.3926 38.1397C19.3974 38.5123 19.3284 38.8827 19.1895 39.2286C19.05 39.5754 18.8425 39.8912 18.5801 40.1573C18.3177 40.4233 18.0049 40.6341 17.6602 40.7784C17.3153 40.9227 16.9452 40.9971 16.5713 40.9971C16.1974 40.9971 15.8272 40.9226 15.4824 40.7784C15.1377 40.6341 14.8249 40.4233 14.5625 40.1573C14.3001 39.8911 14.0925 39.5754 13.9531 39.2286C13.8142 38.8827 13.7462 38.5123 13.751 38.1397L13.75 38.1397L13.75 16.5713C13.7501 15.8232 14.0481 15.1062 14.5771 14.5772C15.1061 14.0482 15.8231 13.7502 16.5713 13.7501L38.1396 13.7501C38.5123 13.7452 38.8827 13.8142 39.2285 13.9532C39.5753 14.0926 39.8911 14.3001 40.1572 14.5626C40.4233 14.825 40.6351 15.1377 40.7793 15.4825C40.9235 15.8273 40.9971 16.1976 40.9971 16.5713C40.9971 16.9451 40.9235 17.3154 40.7793 17.6602C40.6351 18.005 40.4233 18.3177 40.1572 18.5801C39.8911 18.8426 39.5753 19.0501 39.2285 19.1895C38.8827 19.3285 38.5123 19.3975 38.1396 19.3926L23.4307 19.3926L40.2764 36.2872C40.799 36.7988 41.1027 37.4935 41.123 38.2247ZM86.25 83.4288C86.2499 84.1767 85.9526 84.8939 85.4238 85.4229C84.8948 85.9519 84.1769 86.25 83.4287 86.2501L61.8643 86.2501L61.584 86.2393C61.306 86.2156 61.0324 86.1513 60.7725 86.0469C60.4256 85.9075 60.109 85.7 59.8428 85.4376C59.5767 85.1752 59.3659 84.8623 59.2217 84.5176C59.0774 84.1728 59.0029 83.8026 59.0029 83.4288C59.0029 83.0549 59.0774 82.6848 59.2217 82.3399C59.3659 81.9952 59.5767 81.6824 59.8428 81.42C60.109 81.1575 60.4256 80.95 60.7725 80.8106C61.1192 80.6713 61.4906 80.6022 61.8643 80.6075L76.668 80.6075L59.7285 63.7159C59.4572 63.4567 59.2396 63.1469 59.0898 62.8028C58.9401 62.4587 58.8603 62.0881 58.8555 61.713C58.8507 61.3377 58.9206 60.965 59.0615 60.6172C59.2024 60.2694 59.4122 59.9536 59.6768 59.6876C59.9412 59.4217 60.2558 59.2112 60.6025 59.0684C60.9495 58.9256 61.322 58.8528 61.6973 58.8555C62.0724 58.8583 62.4432 58.9362 62.7881 59.084C63.133 59.2319 63.4454 59.4471 63.7061 59.7169L80.6074 76.5694L80.6074 61.8604L80.6084 61.8604C80.6036 61.4877 80.6716 61.1174 80.8105 60.7715C80.95 60.4247 81.1575 60.109 81.4199 59.8428C81.6823 59.5767 81.9951 59.365 82.3398 59.2208C82.6847 59.0765 83.0549 59.003 83.4287 59.003C83.8025 59.003 84.1728 59.0765 84.5176 59.2208C84.8624 59.365 85.1751 59.5767 85.4375 59.8428C85.6999 60.109 85.9075 60.4247 86.0469 60.7715C86.1859 61.1174 86.2538 61.4877 86.249 61.8604L86.25 61.8604L86.25 83.4288Z" fill="white" stroke="white" stroke-width="0.5"/>
</svg>
