<svg width="100" height="100" viewBox="0 0 100 100" fill="none" xmlns="http://www.w3.org/2000/svg">
<path d="M37.4149 69.5V28.62H50.2389C52.8149 28.62 55.0549 29.124 56.9589 30.132C58.8629 31.1027 60.3376 32.484 61.3829 34.276C62.4656 36.068 63.0069 38.1773 63.0069 40.604C63.0069 43.3293 62.2976 45.7 60.8789 47.716C59.4976 49.6947 57.6123 51.0947 55.2229 51.916L63.5669 69.5H56.6789L49.2309 52.7H43.4629V69.5H37.4149ZM43.4629 47.38H50.2389C52.2549 47.38 53.8603 46.7827 55.0549 45.588C56.2496 44.356 56.8469 42.732 56.8469 40.716C56.8469 38.6253 56.2496 36.9827 55.0549 35.788C53.8603 34.5933 52.2549 33.996 50.2389 33.996H43.4629V47.38Z" fill="white"/>
</svg>
