<svg width="100" height="100" viewBox="0 0 100 100" fill="none" xmlns="http://www.w3.org/2000/svg">
<path d="M8.48481 69.5V64.124H19.3488V33.884L8.42881 42.004V35.452L17.7808 28.62H25.3968V64.124H34.1888V69.5H8.48481ZM49.5109 47.044C48.0549 47.044 46.8603 46.6333 45.9269 45.812C45.0309 44.9907 44.5829 43.908 44.5829 42.564C44.5829 41.22 45.0309 40.156 45.9269 39.372C46.8603 38.5507 48.0549 38.14 49.5109 38.14C51.0043 38.14 52.1989 38.5507 53.0949 39.372C53.9909 40.156 54.4389 41.22 54.4389 42.564C54.4389 43.908 53.9909 44.9907 53.0949 45.812C52.1989 46.6333 51.0043 47.044 49.5109 47.044ZM49.5109 70.06C48.0549 70.06 46.8603 69.6493 45.9269 68.828C45.0309 68.0067 44.5829 66.9427 44.5829 65.636C44.5829 64.2547 45.0309 63.172 45.9269 62.388C46.8603 61.5667 48.0549 61.156 49.5109 61.156C51.0043 61.156 52.1989 61.5667 53.0949 62.388C53.9909 63.172 54.4389 64.2547 54.4389 65.636C54.4389 66.9427 53.9909 68.0067 53.0949 68.828C52.1989 69.6493 51.0043 70.06 49.5109 70.06ZM66.6811 69.5V64.124H77.5451V33.884L66.6251 42.004V35.452L75.9771 28.62H83.5931V64.124H92.3851V69.5H66.6811Z" fill="white"/>
</svg>
