<svg width="100" height="100" viewBox="0 0 100 100" fill="none" xmlns="http://www.w3.org/2000/svg">
<path d="M8.87681 69.5V28.62H32.9008V33.996H14.8128V45.588H30.9408V50.908H14.8128V64.124H32.9008V69.5H8.87681ZM45.4789 69.5L35.1189 28.62H41.3349L47.8869 55.836C48.2976 57.4413 48.6523 59.0467 48.9509 60.652C49.2869 62.22 49.5296 63.452 49.6789 64.348C49.8283 63.452 50.0336 62.22 50.2949 60.652C50.5936 59.0467 50.9483 57.4227 51.3589 55.78L57.8549 28.62H63.9029L53.4869 69.5H45.4789ZM78.6091 70.06C76.0331 70.06 73.7931 69.556 71.8891 68.548C70.0224 67.54 68.5664 66.14 67.5211 64.348C66.4757 62.5187 65.9531 60.3907 65.9531 57.964V40.156C65.9531 37.692 66.4571 35.564 67.4651 33.772C68.5104 31.98 69.9851 30.58 71.8891 29.572C73.7931 28.564 76.0331 28.06 78.6091 28.06C81.2224 28.06 83.4624 28.564 85.3291 29.572C87.2331 30.58 88.6891 31.98 89.6971 33.772C90.7424 35.564 91.2651 37.692 91.2651 40.156V57.964C91.2651 60.3907 90.7424 62.5187 89.6971 64.348C88.6517 66.14 87.1771 67.54 85.2731 68.548C83.4064 69.556 81.1851 70.06 78.6091 70.06ZM78.6091 64.852C80.6997 64.852 82.3611 64.2173 83.5931 62.948C84.8624 61.6787 85.4971 60.0173 85.4971 57.964V40.156C85.4971 38.1027 84.8624 36.4413 83.5931 35.172C82.3611 33.9027 80.6997 33.268 78.6091 33.268C76.5184 33.268 74.8384 33.9027 73.5691 35.172C72.3371 36.4413 71.7211 38.1027 71.7211 40.156V57.964C71.7211 60.0173 72.3371 61.6787 73.5691 62.948C74.8384 64.2173 76.5184 64.852 78.6091 64.852ZM78.6091 52.532C77.5637 52.532 76.7051 52.196 76.0331 51.524C75.3984 50.852 75.0811 49.9747 75.0811 48.892C75.0811 47.8467 75.3984 47.0067 76.0331 46.372C76.7051 45.7 77.5637 45.364 78.6091 45.364C79.6544 45.364 80.4944 45.7 81.1291 46.372C81.8011 47.0067 82.1371 47.8467 82.1371 48.892C82.1371 49.9747 81.8011 50.852 81.1291 51.524C80.4944 52.196 79.6544 52.532 78.6091 52.532Z" fill="white"/>
</svg>
