<svg width="100" height="100" viewBox="0 0 100 100" fill="none" xmlns="http://www.w3.org/2000/svg">
<g clip-path="url(#clip0_5_28)">
<path d="M40.5124 48L36.9764 36.236H19.2284L15.6924 48H9.1644L24.1924 1.148H32.3524L47.3124 48H40.5124ZM20.7924 31H35.4124L28.1364 6.52L20.7924 31ZM76.3808 0.331998C79.1915 0.331998 81.5488 0.694664 83.4528 1.42C85.4021 2.14533 87.3741 3.324 89.3688 4.956L85.8328 9.104C82.9768 6.792 79.9621 5.636 76.7888 5.636C72.8901 5.636 69.7395 7.132 67.3368 10.124C64.9795 13.116 63.8008 17.9213 63.8008 24.54C63.8008 30.9773 64.9795 35.7373 67.3368 38.82C69.6941 41.8573 72.8221 43.376 76.7208 43.376C78.7155 43.376 80.4608 43.036 81.9568 42.356C83.4528 41.676 85.0395 40.724 86.7168 39.5L89.9128 43.58C88.4621 45.076 86.6035 46.3227 84.3368 47.32C82.0701 48.3173 79.4635 48.816 76.5168 48.816C72.7088 48.816 69.3088 47.8867 66.3168 46.028C63.3701 44.124 61.0581 41.3587 59.3808 37.732C57.7488 34.06 56.9328 29.6627 56.9328 24.54C56.9328 19.4173 57.7941 15.0427 59.5168 11.416C61.2395 7.744 63.5741 4.97867 66.5208 3.12C69.4675 1.26133 72.7541 0.331998 76.3808 0.331998ZM42.7134 51.148L41.9654 56.316H23.8094V71.616H39.5854V76.784H23.8094V92.832H43.2574V98H17.3494V51.148H42.7134ZM70.7559 50.332C73.8839 50.332 76.5586 50.7853 78.7799 51.692C81.0013 52.5533 83.1546 53.9133 85.2399 55.772L81.7039 59.716C79.9359 58.3107 78.1906 57.2907 76.4679 56.656C74.7906 55.976 72.9773 55.636 71.0279 55.636C68.5799 55.636 66.5626 56.2027 64.9759 57.336C63.3893 58.4693 62.5959 60.124 62.5959 62.3C62.5959 63.66 62.8679 64.816 63.4119 65.768C63.9559 66.6747 64.9533 67.5133 66.4039 68.284C67.8999 69.0547 70.0533 69.8707 72.8639 70.732C75.8106 71.6387 78.2586 72.6133 80.2079 73.656C82.1573 74.6987 83.7213 76.1493 84.8999 78.008C86.1239 79.8213 86.7359 82.1333 86.7359 84.944C86.7359 87.664 86.0559 90.0667 84.6959 92.152C83.3813 94.2373 81.4546 95.8693 78.9159 97.048C76.4226 98.2267 73.4533 98.816 70.0079 98.816C63.5253 98.816 58.2213 96.7987 54.0959 92.764L57.6319 88.82C59.5359 90.3613 61.4626 91.54 63.4119 92.356C65.3613 93.1267 67.5373 93.512 69.9399 93.512C72.8413 93.512 75.2439 92.8093 77.1479 91.404C79.0519 89.9533 80.0039 87.868 80.0039 85.148C80.0039 83.6067 79.7093 82.3373 79.1199 81.34C78.5306 80.2973 77.5106 79.368 76.0599 78.552C74.6546 77.736 72.5919 76.92 69.8719 76.104C65.0666 74.6533 61.5533 72.908 59.3319 70.868C57.1106 68.828 55.9999 66.0627 55.9999 62.572C55.9999 60.2147 56.6119 58.1067 57.8359 56.248C59.1053 54.3893 60.8506 52.9387 63.0719 51.896C65.3386 50.8533 67.8999 50.332 70.7559 50.332Z" fill="white"/>
</g>
<defs>
<clipPath id="clip0_5_28">
<rect width="100" height="100" fill="white"/>
</clipPath>
</defs>
</svg>
