<svg width="100" height="100" viewBox="0 0 100 100" fill="none" xmlns="http://www.w3.org/2000/svg">
<path d="M36.67 19.5C37.1836 19.5 37.6925 19.6034 38.1652 19.8037C38.635 20.0029 39.0604 20.2941 39.4161 20.6602L66.045 47.2891C66.7628 48.0071 67.1661 48.9809 67.1661 49.9961C67.1661 51.0113 66.7628 51.9851 66.045 52.7031L39.4161 79.3311C39.0646 79.6949 38.6443 79.9851 38.1798 80.1855C37.7125 80.3872 37.2096 80.495 36.7003 80.5C36.1912 80.505 35.6862 80.4083 35.215 80.2158C34.7435 80.0232 34.3151 79.7378 33.9552 79.3779C33.5955 79.0181 33.3108 78.5903 33.1183 78.1191C32.9257 77.6476 32.8291 77.1418 32.8341 76.6328C32.8392 76.1237 32.9458 75.6207 33.1476 75.1533C33.348 74.689 33.6385 74.2693 34.0021 73.918L57.924 49.9961L34.0021 26.0742V26.0732C33.4577 25.5439 33.0823 24.8651 32.9249 24.1221C32.767 23.3761 32.8352 22.5995 33.1212 21.8926C33.4072 21.1857 33.8982 20.5806 34.5304 20.1543C35.1626 19.728 35.9076 19.5002 36.67 19.5Z" fill="white" stroke="white"/>
</svg>
